<svg width="100%" viewBox="220 20 240 240" role="img" xmlns="http://www.w3.org/2000/svg">
  <title>Wayzza favicon</title>
  <desc>Wayzza favicon using the arrow peak icon</desc>
  <defs>
    <radialGradient id="glowfav2" cx="50%" cy="50%" r="50%">
      <stop offset="0%" style="stop-color:#4ade80;stop-opacity:0.22"/>
      <stop offset="100%" style="stop-color:#4ade80;stop-opacity:0"/>
    </radialGradient>
    <linearGradient id="borderGrad2" x1="0%" y1="0%" x2="100%" y2="100%">
      <stop offset="0%" style="stop-color:#4ade80;stop-opacity:0.5"/>
      <stop offset="50%" style="stop-color:#4ade80;stop-opacity:0.1"/>
      <stop offset="100%" style="stop-color:#4ade80;stop-opacity:0.4"/>
    </linearGradient>
  </defs>
  <rect x="220" y="20" width="240" height="240" rx="52" fill="#0a2618"/>
  <rect x="223" y="23" width="234" height="234" rx="50" fill="none" stroke="url(#borderGrad2)" stroke-width="1.2"/>
  <circle cx="340" cy="130" r="85" fill="url(#glowfav2)"/>
  <g transform="translate(340, 140)">
    <path d="M-44,44 L0,-52 L44,44 L28,44 L0,0 L-28,44 Z" fill="#4ade80"/>
    <path d="M-28,44 L0,0 L28,44 L16,44 L0,20 L-16,44 Z" fill="#16a34a"/>
    <rect x="-6" y="50" width="12" height="7" rx="1.5" fill="#4ade80" opacity="0.45"/>
  </g>
  <rect x="220" y="222" width="12" height="1.2" rx="0.5" fill="#4ade80" opacity="0.35"/>
  <rect x="220" y="222" width="1.2" height="12" rx="0.5" fill="#4ade80" opacity="0.35"/>
  <rect x="448" y="222" width="12" height="1.2" rx="0.5" fill="#4ade80" opacity="0.35"/>
  <rect x="458.8" y="222" width="1.2" height="12" rx="0.5" fill="#4ade80" opacity="0.35"/>
  <rect x="220" y="26" width="12" height="1.2" rx="0.5" fill="#4ade80" opacity="0.35"/>
  <rect x="220" y="26" width="1.2" height="12" rx="0.5" fill="#4ade80" opacity="0.35"/>
  <rect x="448" y="26" width="12" height="1.2" rx="0.5" fill="#4ade80" opacity="0.35"/>
  <rect x="458.8" y="26" width="1.2" height="12" rx="0.5" fill="#4ade80" opacity="0.35"/>
</svg>
